<svg xmlns="http://www.w3.org/2000/svg" xmlns:xlink="http://www.w3.org/1999/xlink" zoomAndPan="magnify" preserveAspectRatio="xMidYMid meet" version="1.0" viewBox="60.41 120.01 254.31 119.72"><defs><g/><clipPath id="a5fd5b1b93"><path d="M 152 120.007812 L 261 120.007812 L 261 200 L 152 200 Z M 152 120.007812 " clip-rule="nonzero"/></clipPath></defs><g clip-path="url(#a5fd5b1b93)"><path fill="#2b8feb" d="M 169.566406 143.667969 L 189.851562 174.988281 C 193.113281 180.023438 200.429688 180.203125 203.9375 175.335938 L 240.464844 124.621094 C 243.757812 121.066406 248.953125 120 253.390625 121.964844 C 260.535156 125.132812 262.398438 134.398438 257.027344 140.070312 C 241.765625 156.1875 214.628906 184.382812 202.140625 197.339844 C 198.613281 201 192.675781 200.78125 189.429688 196.871094 C 180.507812 186.125 163.910156 166.171875 154.335938 154.898438 C 150.523438 150.410156 151.699219 143.566406 156.796875 140.601562 C 161.1875 138.046875 166.820312 139.398438 169.566406 143.667969 " fill-opacity="1" fill-rule="nonzero"/></g><path fill="#2b65eb" d="M 164.675781 176.808594 C 160.890625 180.09375 154.828125 179.445312 151.941406 174.988281 L 131.652344 143.667969 C 128.90625 139.398438 123.277344 138.046875 118.882812 140.601562 C 113.785156 143.566406 112.609375 150.410156 116.425781 154.898438 C 125.996094 166.171875 142.597656 186.125 151.515625 196.871094 C 154.765625 200.78125 160.699219 201 164.226562 197.339844 C 166.816406 194.652344 170.035156 191.308594 173.648438 187.558594 C 170.734375 184.0625 167.683594 180.40625 164.675781 176.808594 " fill-opacity="1" fill-rule="nonzero"/><g fill="#2b8feb" fill-opacity="1"><g transform="translate(59.534983, 239.364373)"><g><path d="M 5.605469 0.367188 C 8.210938 0.367188 10.992188 -0.644531 10.992188 -3.84375 C 10.992188 -6.394531 9.210938 -7.492188 7.582031 -8.246094 C 5.957031 -8.996094 4.667969 -9.398438 4.667969 -10.222656 C 4.667969 -10.839844 5.277344 -11.042969 6.117188 -11.042969 C 6.941406 -11.042969 7.984375 -10.839844 8.878906 -10.535156 C 9.105469 -10.453125 9.265625 -10.550781 9.335938 -10.765625 L 10 -13.019531 C 10.070312 -13.261719 10 -13.40625 9.765625 -13.476562 C 8.511719 -13.863281 7.046875 -14.101562 5.992188 -14.101562 C 3.425781 -14.101562 0.949219 -12.96875 0.949219 -9.960938 C 0.949219 -7.816406 2.324219 -6.742188 3.917969 -5.921875 C 5.527344 -5.089844 7.253906 -4.597656 7.253906 -3.683594 C 7.253906 -2.988281 6.574219 -2.726562 5.625 -2.726562 C 4.632812 -2.726562 3.316406 -3.003906 2.144531 -3.390625 C 1.921875 -3.460938 1.761719 -3.40625 1.679688 -3.164062 L 0.894531 -0.769531 C 0.824219 -0.527344 0.914062 -0.382812 1.152344 -0.3125 C 2.816406 0.160156 4.246094 0.367188 5.605469 0.367188 Z M 5.605469 0.367188 "/></g></g></g><g fill="#2b8feb" fill-opacity="1"><g transform="translate(74.897993, 239.364373)"><g><path d="M 8.246094 0.367188 C 10.917969 0.367188 13.074219 -0.625 14.34375 -2.359375 C 14.433594 -2.46875 14.46875 -2.601562 14.46875 -2.761719 L 14.46875 -7.289062 C 14.46875 -7.53125 14.34375 -7.65625 14.101562 -7.65625 L 8.71875 -7.65625 C 8.476562 -7.65625 8.351562 -7.53125 8.351562 -7.289062 L 8.351562 -5.089844 C 8.351562 -4.855469 8.476562 -4.722656 8.71875 -4.722656 L 11.132812 -4.722656 L 11.132812 -3.96875 C 10.472656 -3.203125 9.46875 -2.746094 8.246094 -2.746094 C 5.972656 -2.746094 4.472656 -4.320312 4.472656 -6.867188 C 4.472656 -9.300781 5.972656 -10.804688 8.246094 -10.804688 C 9.542969 -10.804688 10.589844 -10.3125 11.269531 -9.488281 C 11.410156 -9.300781 11.570312 -9.265625 11.761719 -9.398438 L 14.175781 -11.007812 C 14.378906 -11.152344 14.414062 -11.320312 14.265625 -11.5 C 12.949219 -13.128906 10.839844 -14.101562 8.246094 -14.101562 C 3.773438 -14.101562 0.804688 -11.285156 0.804688 -6.867188 C 0.804688 -2.449219 3.773438 0.367188 8.246094 0.367188 Z M 8.246094 0.367188 "/></g></g></g><g fill="#3871c1" fill-opacity="1"><g transform="translate(94.011543, 239.364373)"><g/></g></g><g fill="#2b65eb" fill-opacity="1"><g transform="translate(103.492012, 239.364373)"><g><path d="M 4.578125 0 C 4.820312 0 4.945312 -0.125 4.945312 -0.367188 L 4.945312 -5.292969 L 8.039062 -1.679688 C 8.210938 -1.484375 8.386719 -1.484375 8.550781 -1.679688 L 11.6875 -5.328125 L 11.6875 -0.367188 C 11.6875 -0.125 11.8125 0 12.054688 0 L 14.890625 0 C 15.132812 0 15.257812 -0.125 15.257812 -0.367188 L 15.257812 -13.421875 C 15.257812 -14.101562 14.78125 -14.265625 14.363281 -13.734375 L 8.300781 -6.152344 L 2.273438 -13.734375 C 1.832031 -14.289062 1.378906 -14.101562 1.378906 -13.421875 L 1.378906 -0.367188 C 1.378906 -0.125 1.503906 0 1.742188 0 Z M 4.578125 0 "/></g></g></g><g fill="#2b65eb" fill-opacity="1"><g transform="translate(123.744017, 239.364373)"><g><path d="M 8.246094 0.367188 C 12.726562 0.367188 15.710938 -2.449219 15.710938 -6.867188 C 15.710938 -11.285156 12.726562 -14.101562 8.246094 -14.101562 C 3.773438 -14.101562 0.804688 -11.285156 0.804688 -6.867188 C 0.804688 -2.449219 3.773438 0.367188 8.246094 0.367188 Z M 8.246094 -2.933594 C 5.972656 -2.933594 4.472656 -4.4375 4.472656 -6.867188 C 4.472656 -9.300781 5.972656 -10.804688 8.246094 -10.804688 C 10.535156 -10.804688 12.054688 -9.300781 12.054688 -6.867188 C 12.054688 -4.4375 10.535156 -2.933594 8.246094 -2.933594 Z M 8.246094 -2.933594 "/></g></g></g><g fill="#2b65eb" fill-opacity="1"><g transform="translate(143.897707, 239.364373)"><g><path d="M 4.542969 0 C 4.785156 0 4.910156 -0.125 4.910156 -0.367188 L 4.910156 -6.921875 L 12.511719 0 C 13.082031 0.527344 13.496094 0.296875 13.496094 -0.332031 L 13.496094 -13.371094 C 13.496094 -13.609375 13.371094 -13.734375 13.128906 -13.734375 L 10.328125 -13.734375 C 10.085938 -13.734375 9.960938 -13.609375 9.960938 -13.371094 L 9.960938 -7.046875 L 2.273438 -13.824219 C 1.761719 -14.273438 1.378906 -14.050781 1.378906 -13.421875 L 1.378906 -0.367188 C 1.378906 -0.125 1.503906 0 1.742188 0 Z M 4.542969 0 "/></g></g></g><g fill="#2b65eb" fill-opacity="1"><g transform="translate(162.388958, 239.364373)"><g><path d="M 10.273438 0 C 10.515625 0 10.640625 -0.125 10.640625 -0.367188 L 10.640625 -2.746094 C 10.640625 -2.988281 10.515625 -3.113281 10.273438 -3.113281 L 5.015625 -3.113281 L 5.015625 -4.722656 L 9.558594 -4.722656 C 9.800781 -4.722656 9.925781 -4.855469 9.925781 -5.089844 L 9.925781 -7.289062 C 9.925781 -7.53125 9.800781 -7.65625 9.558594 -7.65625 L 5.015625 -7.65625 L 5.015625 -10.625 L 10.273438 -10.625 C 10.515625 -10.625 10.640625 -10.75 10.640625 -10.992188 L 10.640625 -13.371094 C 10.640625 -13.609375 10.515625 -13.734375 10.273438 -13.734375 L 1.726562 -13.734375 C 1.484375 -13.734375 1.359375 -13.609375 1.359375 -13.371094 L 1.359375 -0.367188 C 1.359375 -0.125 1.484375 0 1.726562 0 Z M 10.273438 0 "/></g></g></g><g fill="#2b65eb" fill-opacity="1"><g transform="translate(177.698342, 239.364373)"><g><path d="M 8.828125 0 C 9.066406 0 9.191406 -0.125 9.191406 -0.367188 L 9.191406 -5.257812 L 14.542969 -13.296875 C 14.710938 -13.53125 14.59375 -13.734375 14.300781 -13.734375 L 10.75 -13.734375 C 10.550781 -13.734375 10.402344 -13.648438 10.3125 -13.476562 L 7.378906 -8.550781 L 4.488281 -13.476562 C 4.398438 -13.648438 4.246094 -13.734375 4.050781 -13.734375 L 0.492188 -13.734375 C 0.207031 -13.734375 0.0898438 -13.53125 0.257812 -13.296875 L 5.527344 -5.257812 L 5.527344 -0.367188 C 5.527344 -0.125 5.660156 0 5.894531 0 Z M 8.828125 0 "/></g></g></g><g fill="#2b65eb" fill-opacity="1"><g transform="translate(196.118093, 239.364373)"><g/></g></g><g fill="#2b65eb" fill-opacity="1"><g transform="translate(205.600003, 239.364373)"><g><path d="M 9.15625 0 C 9.398438 0 9.523438 -0.125 9.523438 -0.367188 L 9.523438 -2.746094 C 9.523438 -2.988281 9.398438 -3.113281 9.15625 -3.113281 L 5.015625 -3.113281 L 5.015625 -13.371094 C 5.015625 -13.609375 4.890625 -13.734375 4.648438 -13.734375 L 1.726562 -13.734375 C 1.484375 -13.734375 1.359375 -13.609375 1.359375 -13.371094 L 1.359375 -0.367188 C 1.359375 -0.125 1.484375 0 1.726562 0 Z M 9.15625 0 "/></g></g></g><g fill="#2b65eb" fill-opacity="1"><g transform="translate(219.130752, 239.364373)"><g><path d="M 10.273438 0 C 10.515625 0 10.640625 -0.125 10.640625 -0.367188 L 10.640625 -2.746094 C 10.640625 -2.988281 10.515625 -3.113281 10.273438 -3.113281 L 5.015625 -3.113281 L 5.015625 -4.722656 L 9.558594 -4.722656 C 9.800781 -4.722656 9.925781 -4.855469 9.925781 -5.089844 L 9.925781 -7.289062 C 9.925781 -7.53125 9.800781 -7.65625 9.558594 -7.65625 L 5.015625 -7.65625 L 5.015625 -10.625 L 10.273438 -10.625 C 10.515625 -10.625 10.640625 -10.75 10.640625 -10.992188 L 10.640625 -13.371094 C 10.640625 -13.609375 10.515625 -13.734375 10.273438 -13.734375 L 1.726562 -13.734375 C 1.484375 -13.734375 1.359375 -13.609375 1.359375 -13.371094 L 1.359375 -0.367188 C 1.359375 -0.125 1.484375 0 1.726562 0 Z M 10.273438 0 "/></g></g></g><g fill="#2b65eb" fill-opacity="1"><g transform="translate(234.440131, 239.364373)"><g><path d="M 4.542969 0 C 4.785156 0 4.910156 -0.125 4.910156 -0.367188 L 4.910156 -6.921875 L 12.511719 0 C 13.082031 0.527344 13.496094 0.296875 13.496094 -0.332031 L 13.496094 -13.371094 C 13.496094 -13.609375 13.371094 -13.734375 13.128906 -13.734375 L 10.328125 -13.734375 C 10.085938 -13.734375 9.960938 -13.609375 9.960938 -13.371094 L 9.960938 -7.046875 L 2.273438 -13.824219 C 1.761719 -14.273438 1.378906 -14.050781 1.378906 -13.421875 L 1.378906 -0.367188 C 1.378906 -0.125 1.503906 0 1.742188 0 Z M 4.542969 0 "/></g></g></g><g fill="#2b65eb" fill-opacity="1"><g transform="translate(252.931379, 239.364373)"><g><path d="M 6.324219 0 C 11.535156 0 13.808594 -2.566406 13.808594 -6.851562 C 13.808594 -11.207031 11.464844 -13.734375 6.324219 -13.734375 L 1.726562 -13.734375 C 1.484375 -13.734375 1.359375 -13.609375 1.359375 -13.371094 L 1.359375 -0.367188 C 1.359375 -0.125 1.484375 0 1.726562 0 Z M 5.050781 -10.625 L 6.339844 -10.625 C 8.917969 -10.625 10.148438 -9.28125 10.148438 -6.902344 C 10.148438 -4.523438 8.917969 -3.113281 6.339844 -3.113281 L 5.050781 -3.113281 Z M 5.050781 -10.625 "/></g></g></g><g fill="#2b65eb" fill-opacity="1"><g transform="translate(271.199181, 239.364373)"><g><path d="M 10.273438 0 C 10.515625 0 10.640625 -0.125 10.640625 -0.367188 L 10.640625 -2.746094 C 10.640625 -2.988281 10.515625 -3.113281 10.273438 -3.113281 L 5.015625 -3.113281 L 5.015625 -4.722656 L 9.558594 -4.722656 C 9.800781 -4.722656 9.925781 -4.855469 9.925781 -5.089844 L 9.925781 -7.289062 C 9.925781 -7.53125 9.800781 -7.65625 9.558594 -7.65625 L 5.015625 -7.65625 L 5.015625 -10.625 L 10.273438 -10.625 C 10.515625 -10.625 10.640625 -10.75 10.640625 -10.992188 L 10.640625 -13.371094 C 10.640625 -13.609375 10.515625 -13.734375 10.273438 -13.734375 L 1.726562 -13.734375 C 1.484375 -13.734375 1.359375 -13.609375 1.359375 -13.371094 L 1.359375 -0.367188 C 1.359375 -0.125 1.484375 0 1.726562 0 Z M 10.273438 0 "/></g></g></g><g fill="#2b65eb" fill-opacity="1"><g transform="translate(286.508559, 239.364373)"><g><path d="M 10.238281 -5.160156 C 11.589844 -5.867188 12.359375 -7.332031 12.359375 -9.320312 C 12.359375 -11.671875 11.304688 -13.734375 7.429688 -13.734375 L 1.726562 -13.734375 C 1.484375 -13.734375 1.359375 -13.609375 1.359375 -13.371094 L 1.359375 -0.367188 C 1.359375 -0.125 1.484375 0 1.726562 0 L 4.667969 0 C 4.910156 0 5.035156 -0.125 5.035156 -0.367188 L 5.035156 -4.6875 L 6.582031 -4.6875 L 8.789062 -0.277344 C 8.878906 -0.0898438 9.015625 0 9.210938 0 L 12.546875 0 C 12.824219 0 12.929688 -0.179688 12.804688 -0.4375 Z M 6.796875 -10.625 C 7.53125 -10.625 8.703125 -10.625 8.703125 -9.28125 C 8.703125 -7.796875 7.304688 -7.796875 6.796875 -7.796875 L 5.035156 -7.796875 L 5.035156 -10.625 Z M 6.796875 -10.625 "/></g></g></g><g fill="#2b65eb" fill-opacity="1"><g transform="translate(303.721696, 239.364373)"><g><path d="M 5.605469 0.367188 C 8.210938 0.367188 10.992188 -0.644531 10.992188 -3.84375 C 10.992188 -6.394531 9.210938 -7.492188 7.582031 -8.246094 C 5.957031 -8.996094 4.667969 -9.398438 4.667969 -10.222656 C 4.667969 -10.839844 5.277344 -11.042969 6.117188 -11.042969 C 6.941406 -11.042969 7.984375 -10.839844 8.878906 -10.535156 C 9.105469 -10.453125 9.265625 -10.550781 9.335938 -10.765625 L 10 -13.019531 C 10.070312 -13.261719 10 -13.40625 9.765625 -13.476562 C 8.511719 -13.863281 7.046875 -14.101562 5.992188 -14.101562 C 3.425781 -14.101562 0.949219 -12.96875 0.949219 -9.960938 C 0.949219 -7.816406 2.324219 -6.742188 3.917969 -5.921875 C 5.527344 -5.089844 7.253906 -4.597656 7.253906 -3.683594 C 7.253906 -2.988281 6.574219 -2.726562 5.625 -2.726562 C 4.632812 -2.726562 3.316406 -3.003906 2.144531 -3.390625 C 1.921875 -3.460938 1.761719 -3.40625 1.679688 -3.164062 L 0.894531 -0.769531 C 0.824219 -0.527344 0.914062 -0.382812 1.152344 -0.3125 C 2.816406 0.160156 4.246094 0.367188 5.605469 0.367188 Z M 5.605469 0.367188 "/></g></g></g></svg>